Coordinates
version=1
nRows=17
nColumns=24
inDegrees=yes

Units are S.I. units (second, meters, Newtons, ...)
Angles are in degrees.

endheader
time	pelvis_tilt	pelvis_list	pelvis_rotation	pelvis_tx	pelvis_ty	pelvis_tz	hip_flexion_r	hip_adduction_r	hip_rotation_r	knee_angle_r	ankle_angle_r	subtalar_angle_r	mtp_angle_r	hip_flexion_l	hip_adduction_l	hip_rotation_l	knee_angle_l	ankle_angle_l	subtalar_angle_l	mtp_angle_l	lumbar_extension	lumbar_bending	lumbar_rotation
      3.25000000	    -11.43636250	     -1.71188864	      6.90727735	     -1.87062035	     -0.03861105	     -0.28461367	     35.80096619	     -4.68711859	    -19.68522345	     -9.47633824	     -2.79693040	      0.92136447	     17.64864661	     -4.77863241	     -1.29420040	     -5.77152179	    -15.58532116	      8.24202320	     -1.14483063	     -4.07610824	      4.95815210	      2.93019712	     -9.14661028
      3.25500000	    -11.46878493	     -1.93248594	      6.98239368	     -1.86207650	     -0.03922515	     -0.28388534	     35.72318868	     -4.44738804	    -19.58780920	     -9.93858031	     -3.12276749	      0.81969079	     17.72199601	     -4.84503444	     -1.75528616	     -5.86509986	    -16.25957957	      7.72742594	     -0.69709915	     -3.92717160	      5.19026532	      3.13708903	     -9.20547585
      3.26000000	    -11.46477403	     -2.13933350	      6.93220049	     -1.85349574	     -0.03977133	     -0.28292143	     35.61708205	     -4.12023481	    -19.24646268	    -10.38757243	     -3.80082921	      0.41681210	     18.08389049	     -4.95688918	     -2.22402170	     -6.17822748	    -16.92592762	      7.05690068	     -0.15690453	     -3.26445003	      5.37823255	      3.34322154	     -9.14934724
      3.26500000	    -11.54052510	     -2.41179364	      6.94523005	     -1.84488517	     -0.04030778	     -0.28207734	     35.59050104	     -3.78945413	    -18.98035528	    -10.85031157	     -4.66103156	     -0.05476754	     18.39334315	     -4.92216498	     -2.74980408	     -6.32739897	    -17.66687744	      6.34218698	      0.27192592	     -2.71068037	      5.67228620	      3.60657344	     -9.16139988
      3.27000000	    -11.60520568	     -2.71606556	      6.99797730	     -1.83634863	     -0.04072770	     -0.28130849	     35.55617605	     -3.45679276	    -18.72235798	    -11.32766052	     -5.63985183	     -0.62391844	     18.43649419	     -4.83350845	     -3.30859695	     -6.38432003	    -18.49300940	      5.61000205	      0.63795840	     -2.47360484	      5.95013335	      3.90370444	     -9.24387067
      3.27500000	    -11.68189610	     -3.05486032	      6.82866303	     -1.82767847	     -0.04112325	     -0.28025824	     35.56805298	     -2.94801284	    -18.20933785	    -11.79837059	     -6.84139271	     -1.44654924	     18.52168424	     -4.76303130	     -3.90755827	     -6.70914510	    -19.30007817	      4.75240524	      1.06127810	     -1.90756619	      6.24965713	      4.26597845	     -9.05063364
      3.28000000	    -11.78051580	     -3.42598505	      6.72998812	     -1.81904017	     -0.04138505	     -0.27927949	     35.60023982	     -2.45279427	    -17.75108013	    -12.27804779	     -8.07914091	     -2.42409151	     18.38016030	     -4.59898508	     -4.54489246	     -6.90821231	    -20.17945816	      3.78056113	      1.44385282	     -1.41062749	      6.58181611	      4.64518773	     -8.97450117
      3.28500000	    -11.87185204	     -3.82036951	      6.67183897	     -1.81051026	     -0.04153686	     -0.27837987	     35.63808369	     -1.96353429	    -17.25920790	    -12.79798151	     -9.25763390	     -3.50049831	     18.06449958	     -4.35896504	     -5.20564456	     -7.02646554	    -21.16181706	      2.73915683	      1.73905373	     -1.11193343	      6.89657572	      5.05269002	     -8.97821817
      3.29000000	    -11.99221623	     -4.23285131	      6.35976033	     -1.80180365	     -0.04170503	     -0.27714940	     35.74966111	     -1.30042739	    -16.52539598	    -13.38111675	    -10.35702924	     -4.63831114	     17.47369604	     -4.13252988	     -5.89592984	     -7.46566351	    -22.12379565	      1.51859282	      2.11471559	     -0.32834939	      7.24656831	      5.51091160	     -8.65913702
      3.29500000	    -12.02996697	     -4.67847008	      6.19792620	     -1.79325061	     -0.04164756	     -0.27606860	     35.76503776	     -0.67871995	    -15.87053429	    -14.04532422	    -11.03807742	     -5.64990539	     15.49407869	     -3.90557773	     -6.63664764	     -7.68735944	    -23.07136310	     -0.36883695	      2.11805993	      2.54821206	      7.50108131	      5.99050865	     -8.55592842
      3.30000000	    -12.17862255	     -5.07354255	      6.01894824	     -1.78468057	     -0.04168450	     -0.27501992	     35.90956058	     -0.12387335	    -15.23854762	    -14.71741252	    -11.80874364	     -6.78349643	     15.07905675	     -3.47606938	     -7.29954648	     -7.84516572	    -24.25038175	     -1.70808012	      2.34169959	      2.47078780	      7.87263504	      6.41420603	     -8.46110391
      3.30500000	    -12.31406558	     -5.46023334	      5.67326932	     -1.77604643	     -0.04172737	     -0.27373463	     36.05288924	      0.53284433	    -14.44869125	    -15.44492509	    -12.29993524	     -7.75947562	     14.28948756	     -3.06761600	     -7.97432843	     -8.22430128	    -25.45098637	     -3.23454796	      2.58796600	      2.83263144	      8.21429525	      6.86034195	     -8.16030950
      3.31000000	    -12.36191129	     -5.82601987	      5.44249375	     -1.76750959	     -0.04156515	     -0.27252893	     36.09125844	      1.11901927	    -13.85553378	    -16.24626240	    -12.24381791	     -8.46317212	     11.89367903	     -2.69056103	     -8.63246284	     -8.41300382	    -26.60210508	     -5.41480857	      2.47203787	      4.86430266	      8.45470355	      7.26517130	     -8.00304256
      3.31500000	    -12.45251377	     -6.12786071	      5.19596972	     -1.75900499	     -0.04144481	     -0.27138539	     36.14240475	      1.63248026	    -13.32524597	    -16.95076417	    -12.40334257	     -9.24371346	     11.69539590	     -2.19371908	     -9.19994829	     -8.52818677	    -27.93574526	     -7.20198308	      2.49218440	      4.61891263	      8.72658199	      7.61695438	     -7.84189687
      3.32000000	    -12.54533835	     -6.40110912	      4.90316323	     -1.75054216	     -0.04137359	     -0.27012923	     36.17838719	      2.15557827	    -12.77132619	    -17.65054412	    -12.31730690	     -9.90273084	     11.47555722	     -1.64972972	     -9.74773594	     -8.69977084	    -29.33306945	     -9.09314646	      2.43695076	      4.48897071	      8.98188676	      7.94220607	     -7.63156501
      3.32500000	    -12.54142364	     -6.70222513	      4.65053005	     -1.74209946	     -0.04115139	     -0.26903955	     36.06198455	      2.66768944	    -12.45663799	    -18.28755513	    -12.02187349	    -10.24525324	     11.44409740	     -1.15650486	    -10.31540954	     -8.77019441	    -30.76763494	    -11.06149097	      2.26856275	      4.20100681	      9.13324384	      8.31638620	     -7.44429000
      3.33000000	    -12.66444456	     -6.87171624	      4.32033714	     -1.73382873	     -0.04104959	     -0.26765832	     36.07324033	      3.12248490	    -11.95258489	    -18.91016788	    -11.70793453	    -10.74361498	     11.27739702	     -0.48748979	    -10.73714351	     -8.85551114	    -32.24845740	    -13.14930906	      2.02863947	      4.02488601	      9.37234994	      8.53184388	     -7.21971796
